<svg width="139" height="174" viewBox="0 0 139 174" fill="none" xmlns="http://www.w3.org/2000/svg">
<path d="M2 164.457C27.1378 168.537 77.4996 173.574 77.8443 161.088C78.2752 145.48 108.872 146.19 136.02 151.156" stroke="black" stroke-width="4" stroke-linecap="round" stroke-linejoin="round" stroke-dasharray="12 12"/>
<g filter="url(#filter0_d)">
<path d="M45.1802 79.8037L71.9495 152.552C74.5628 159.654 85.1398 159.676 87.9491 152.649C99.0966 124.767 116.245 84.3988 116.922 78.466C121.909 34.7922 46.2683 30.7984 44.7123 77.0097C44.6806 77.9519 44.8546 78.919 45.1802 79.8037Z" fill="url(#paint0_linear)"/>
</g>
<ellipse cx="80.4267" cy="80" rx="18.8621" ry="19" fill="white"/>
<g filter="url(#filter1_d)">
<rect x="14.9057" y="4" width="61.5501" height="85" rx="3" fill="white"/>
</g>
<path d="M22.9502 18.0795C23.7954 18.0795 24.3522 17.5625 24.4516 16.8864H23.865C23.7556 17.304 23.4076 17.5526 22.9502 17.5526C22.2542 17.5526 21.8067 16.9759 21.8067 16.0909C21.8067 15.2259 22.2641 14.6591 22.9502 14.6591C23.4672 14.6591 23.7755 14.9773 23.865 15.3253H24.4516C24.3522 14.6094 23.7456 14.1321 22.9402 14.1321C21.9062 14.1321 21.2201 14.9474 21.2201 16.1108C21.2201 17.2543 21.8763 18.0795 22.9502 18.0795ZM26.8603 18.0795C27.8944 18.0795 28.5905 17.294 28.5905 16.1108C28.5905 14.9176 27.8944 14.1321 26.8603 14.1321C25.8263 14.1321 25.1302 14.9176 25.1302 16.1108C25.1302 17.294 25.8263 18.0795 26.8603 18.0795ZM26.8603 17.5526C26.0748 17.5526 25.7169 16.8764 25.7169 16.1108C25.7169 15.3452 26.0748 14.6591 26.8603 14.6591C27.6459 14.6591 28.0038 15.3452 28.0038 16.1108C28.0038 16.8764 27.6459 17.5526 26.8603 17.5526ZM30.9277 18.0795C31.6635 18.0795 31.9121 17.6222 32.0414 17.4134H32.111V18H32.6777V12.9091H32.0911V14.7884H32.0414C31.9121 14.5895 31.6834 14.1321 30.9377 14.1321C29.9732 14.1321 29.307 14.8977 29.307 16.1009C29.307 17.3139 29.9732 18.0795 30.9277 18.0795ZM31.0073 17.5526C30.2715 17.5526 29.8936 16.9062 29.8936 16.0909C29.8936 15.2855 30.2615 14.6591 31.0073 14.6591C31.7232 14.6591 32.101 15.2358 32.101 16.0909C32.101 16.956 31.7132 17.5526 31.0073 17.5526ZM35.4345 18.0795C36.21 18.0795 36.7768 17.6918 36.9558 17.1151L36.389 16.956C36.2399 17.3537 35.8943 17.5526 35.4345 17.5526C34.7459 17.5526 34.2711 17.1076 34.2438 16.2898H37.0154V16.0412C37.0154 14.6193 36.1703 14.1321 35.3748 14.1321C34.3407 14.1321 33.6546 14.9474 33.6546 16.1207C33.6546 17.294 34.3308 18.0795 35.4345 18.0795ZM34.2438 15.7827C34.2836 15.1886 34.7037 14.6591 35.3748 14.6591C36.0112 14.6591 36.4189 15.1364 36.4189 15.7827H34.2438ZM22.9502 29.0795C23.7954 29.0795 24.3522 28.5625 24.4516 27.8864H23.865C23.7556 28.304 23.4076 28.5526 22.9502 28.5526C22.2542 28.5526 21.8067 27.9759 21.8067 27.0909C21.8067 26.2259 22.2641 25.6591 22.9502 25.6591C23.4672 25.6591 23.7755 25.9773 23.865 26.3253H24.4516C24.3522 25.6094 23.7456 25.1321 22.9402 25.1321C21.9062 25.1321 21.2201 25.9474 21.2201 27.1108C21.2201 28.2543 21.8763 29.0795 22.9502 29.0795ZM26.8603 29.0795C27.8944 29.0795 28.5905 28.294 28.5905 27.1108C28.5905 25.9176 27.8944 25.1321 26.8603 25.1321C25.8263 25.1321 25.1302 25.9176 25.1302 27.1108C25.1302 28.294 25.8263 29.0795 26.8603 29.0795ZM26.8603 28.5526C26.0748 28.5526 25.7169 27.8764 25.7169 27.1108C25.7169 26.3452 26.0748 25.6591 26.8603 25.6591C27.6459 25.6591 28.0038 26.3452 28.0038 27.1108C28.0038 27.8764 27.6459 28.5526 26.8603 28.5526ZM30.9277 29.0795C31.6635 29.0795 31.9121 28.6222 32.0414 28.4134H32.111V29H32.6777V23.9091H32.0911V25.7884H32.0414C31.9121 25.5895 31.6834 25.1321 30.9377 25.1321C29.9732 25.1321 29.307 25.8977 29.307 27.1009C29.307 28.3139 29.9732 29.0795 30.9277 29.0795ZM31.0073 28.5526C30.2715 28.5526 29.8936 27.9062 29.8936 27.0909C29.8936 26.2855 30.2615 25.6591 31.0073 25.6591C31.7232 25.6591 32.101 26.2358 32.101 27.0909C32.101 27.956 31.7132 28.5526 31.0073 28.5526ZM35.4345 29.0795C36.21 29.0795 36.7768 28.6918 36.9558 28.1151L36.389 27.956C36.2399 28.3537 35.8943 28.5526 35.4345 28.5526C34.7459 28.5526 34.2711 28.1076 34.2438 27.2898H37.0154V27.0412C37.0154 25.6193 36.1703 25.1321 35.3748 25.1321C34.3407 25.1321 33.6546 25.9474 33.6546 27.1207C33.6546 28.294 34.3308 29.0795 35.4345 29.0795ZM34.2438 26.7827C34.2836 26.1886 34.7037 25.6591 35.3748 25.6591C36.0112 25.6591 36.4189 26.1364 36.4189 26.7827H34.2438ZM22.9502 40.0795C23.7954 40.0795 24.3522 39.5625 24.4516 38.8864H23.865C23.7556 39.304 23.4076 39.5526 22.9502 39.5526C22.2542 39.5526 21.8067 38.9759 21.8067 38.0909C21.8067 37.2259 22.2641 36.6591 22.9502 36.6591C23.4672 36.6591 23.7755 36.9773 23.865 37.3253H24.4516C24.3522 36.6094 23.7456 36.1321 22.9402 36.1321C21.9062 36.1321 21.2201 36.9474 21.2201 38.1108C21.2201 39.2543 21.8763 40.0795 22.9502 40.0795ZM26.8603 40.0795C27.8944 40.0795 28.5905 39.294 28.5905 38.1108C28.5905 36.9176 27.8944 36.1321 26.8603 36.1321C25.8263 36.1321 25.1302 36.9176 25.1302 38.1108C25.1302 39.294 25.8263 40.0795 26.8603 40.0795ZM26.8603 39.5526C26.0748 39.5526 25.7169 38.8764 25.7169 38.1108C25.7169 37.3452 26.0748 36.6591 26.8603 36.6591C27.6459 36.6591 28.0038 37.3452 28.0038 38.1108C28.0038 38.8764 27.6459 39.5526 26.8603 39.5526ZM30.9277 40.0795C31.6635 40.0795 31.9121 39.6222 32.0414 39.4134H32.111V40H32.6777V34.9091H32.0911V36.7884H32.0414C31.9121 36.5895 31.6834 36.1321 30.9377 36.1321C29.9732 36.1321 29.307 36.8977 29.307 38.1009C29.307 39.3139 29.9732 40.0795 30.9277 40.0795ZM31.0073 39.5526C30.2715 39.5526 29.8936 38.9062 29.8936 38.0909C29.8936 37.2855 30.2615 36.6591 31.0073 36.6591C31.7232 36.6591 32.101 37.2358 32.101 38.0909C32.101 38.956 31.7132 39.5526 31.0073 39.5526ZM35.4345 40.0795C36.21 40.0795 36.7768 39.6918 36.9558 39.1151L36.389 38.956C36.2399 39.3537 35.8943 39.5526 35.4345 39.5526C34.7459 39.5526 34.2711 39.1076 34.2438 38.2898H37.0154V38.0412C37.0154 36.6193 36.1703 36.1321 35.3748 36.1321C34.3407 36.1321 33.6546 36.9474 33.6546 38.1207C33.6546 39.294 34.3308 40.0795 35.4345 40.0795ZM34.2438 37.7827C34.2836 37.1886 34.7037 36.6591 35.3748 36.6591C36.0112 36.6591 36.4189 37.1364 36.4189 37.7827H34.2438ZM39.459 40.0795C40.3041 40.0795 40.861 39.5625 40.9604 38.8864H40.3738C40.2644 39.304 39.9164 39.5526 39.459 39.5526C38.763 39.5526 38.3155 38.9759 38.3155 38.0909C38.3155 37.2259 38.7729 36.6591 39.459 36.6591C39.976 36.6591 40.2843 36.9773 40.3738 37.3253H40.9604C40.861 36.6094 40.2544 36.1321 39.449 36.1321C38.4149 36.1321 37.7289 36.9474 37.7289 38.1108C37.7289 39.2543 38.3851 40.0795 39.459 40.0795ZM43.3691 40.0795C44.4032 40.0795 45.0992 39.294 45.0992 38.1108C45.0992 36.9176 44.4032 36.1321 43.3691 36.1321C42.335 36.1321 41.639 36.9176 41.639 38.1108C41.639 39.294 42.335 40.0795 43.3691 40.0795ZM43.3691 39.5526C42.5836 39.5526 42.2257 38.8764 42.2257 38.1108C42.2257 37.3452 42.5836 36.6591 43.3691 36.6591C44.1546 36.6591 44.5126 37.3452 44.5126 38.1108C44.5126 38.8764 44.1546 39.5526 43.3691 39.5526ZM47.4365 40.0795C48.1723 40.0795 48.4209 39.6222 48.5502 39.4134H48.6198V40H49.1865V34.9091H48.5999V36.7884H48.5502C48.4209 36.5895 48.1922 36.1321 47.4465 36.1321C46.482 36.1321 45.8158 36.8977 45.8158 38.1009C45.8158 39.3139 46.482 40.0795 47.4365 40.0795ZM47.5161 39.5526C46.7803 39.5526 46.4024 38.9062 46.4024 38.0909C46.4024 37.2855 46.7703 36.6591 47.5161 36.6591C48.232 36.6591 48.6098 37.2358 48.6098 38.0909C48.6098 38.956 48.222 39.5526 47.5161 39.5526ZM51.9433 40.0795C52.7188 40.0795 53.2856 39.6918 53.4646 39.1151L52.8978 38.956C52.7487 39.3537 52.4031 39.5526 51.9433 39.5526C51.2547 39.5526 50.7799 39.1076 50.7526 38.2898H53.5242V38.0412C53.5242 36.6193 52.6791 36.1321 51.8836 36.1321C50.8495 36.1321 50.1634 36.9474 50.1634 38.1207C50.1634 39.294 50.8396 40.0795 51.9433 40.0795ZM50.7526 37.7827C50.7923 37.1886 51.2124 36.6591 51.8836 36.6591C52.52 36.6591 52.9276 37.1364 52.9276 37.7827H50.7526ZM55.9678 40.0795C56.8129 40.0795 57.3698 39.5625 57.4692 38.8864H56.8825C56.7732 39.304 56.4252 39.5526 55.9678 39.5526C55.2717 39.5526 54.8243 38.9759 54.8243 38.0909C54.8243 37.2259 55.2817 36.6591 55.9678 36.6591C56.4848 36.6591 56.7931 36.9773 56.8825 37.3253H57.4692C57.3698 36.6094 56.7632 36.1321 55.9578 36.1321C54.9237 36.1321 54.2377 36.9474 54.2377 38.1108C54.2377 39.2543 54.8939 40.0795 55.9678 40.0795ZM59.8779 40.0795C60.912 40.0795 61.608 39.294 61.608 38.1108C61.608 36.9176 60.912 36.1321 59.8779 36.1321C58.8438 36.1321 58.1478 36.9176 58.1478 38.1108C58.1478 39.294 58.8438 40.0795 59.8779 40.0795ZM59.8779 39.5526C59.0924 39.5526 58.7345 38.8764 58.7345 38.1108C58.7345 37.3452 59.0924 36.6591 59.8779 36.6591C60.6634 36.6591 61.0214 37.3452 61.0214 38.1108C61.0214 38.8764 60.6634 39.5526 59.8779 39.5526ZM63.9453 40.0795C64.6811 40.0795 64.9297 39.6222 65.0589 39.4134H65.1285V40H65.6953V34.9091H65.1087V36.7884H65.0589C64.9297 36.5895 64.701 36.1321 63.9553 36.1321C62.9908 36.1321 62.3246 36.8977 62.3246 38.1009C62.3246 39.3139 62.9908 40.0795 63.9453 40.0795ZM64.0249 39.5526C63.2891 39.5526 62.9112 38.9062 62.9112 38.0909C62.9112 37.2855 63.2791 36.6591 64.0249 36.6591C64.7408 36.6591 65.1186 37.2358 65.1186 38.0909C65.1186 38.956 64.7308 39.5526 64.0249 39.5526ZM22.9999 51.0795C23.7755 51.0795 24.3422 50.6918 24.5212 50.1151L23.9545 49.956C23.8053 50.3537 23.4598 50.5526 22.9999 50.5526C22.3113 50.5526 21.8366 50.1076 21.8092 49.2898H24.5809V49.0412C24.5809 47.6193 23.7357 47.1321 22.9402 47.1321C21.9062 47.1321 21.2201 47.9474 21.2201 49.1207C21.2201 50.294 21.8962 51.0795 22.9999 51.0795ZM21.8092 48.7827C21.849 48.1886 22.2691 47.6591 22.9402 47.6591C23.5766 47.6591 23.9843 48.1364 23.9843 48.7827H21.8092ZM22.9502 62.0795C23.7954 62.0795 24.3522 61.5625 24.4516 60.8864H23.865C23.7556 61.304 23.4076 61.5526 22.9502 61.5526C22.2542 61.5526 21.8067 60.9759 21.8067 60.0909C21.8067 59.2259 22.2641 58.6591 22.9502 58.6591C23.4672 58.6591 23.7755 58.9773 23.865 59.3253H24.4516C24.3522 58.6094 23.7456 58.1321 22.9402 58.1321C21.9062 58.1321 21.2201 58.9474 21.2201 60.1108C21.2201 61.2543 21.8763 62.0795 22.9502 62.0795ZM26.8603 62.0795C27.8944 62.0795 28.5905 61.294 28.5905 60.1108C28.5905 58.9176 27.8944 58.1321 26.8603 58.1321C25.8263 58.1321 25.1302 58.9176 25.1302 60.1108C25.1302 61.294 25.8263 62.0795 26.8603 62.0795ZM26.8603 61.5526C26.0748 61.5526 25.7169 60.8764 25.7169 60.1108C25.7169 59.3452 26.0748 58.6591 26.8603 58.6591C27.6459 58.6591 28.0038 59.3452 28.0038 60.1108C28.0038 60.8764 27.6459 61.5526 26.8603 61.5526ZM30.9277 62.0795C31.6635 62.0795 31.9121 61.6222 32.0414 61.4134H32.111V62H32.6777V56.9091H32.0911V58.7884H32.0414C31.9121 58.5895 31.6834 58.1321 30.9377 58.1321C29.9732 58.1321 29.307 58.8977 29.307 60.1009C29.307 61.3139 29.9732 62.0795 30.9277 62.0795ZM31.0073 61.5526C30.2715 61.5526 29.8936 60.9062 29.8936 60.0909C29.8936 59.2855 30.2615 58.6591 31.0073 58.6591C31.7232 58.6591 32.101 59.2358 32.101 60.0909C32.101 60.956 31.7132 61.5526 31.0073 61.5526ZM35.4345 62.0795C36.21 62.0795 36.7768 61.6918 36.9558 61.1151L36.389 60.956C36.2399 61.3537 35.8943 61.5526 35.4345 61.5526C34.7459 61.5526 34.2711 61.1076 34.2438 60.2898H37.0154V60.0412C37.0154 58.6193 36.1703 58.1321 35.3748 58.1321C34.3407 58.1321 33.6546 58.9474 33.6546 60.1207C33.6546 61.294 34.3308 62.0795 35.4345 62.0795ZM34.2438 59.7827C34.2836 59.1886 34.7037 58.6591 35.3748 58.6591C36.0112 58.6591 36.4189 59.1364 36.4189 59.7827H34.2438ZM39.459 62.0795C40.3041 62.0795 40.861 61.5625 40.9604 60.8864H40.3738C40.2644 61.304 39.9164 61.5526 39.459 61.5526C38.763 61.5526 38.3155 60.9759 38.3155 60.0909C38.3155 59.2259 38.7729 58.6591 39.459 58.6591C39.976 58.6591 40.2843 58.9773 40.3738 59.3253H40.9604C40.861 58.6094 40.2544 58.1321 39.449 58.1321C38.4149 58.1321 37.7289 58.9474 37.7289 60.1108C37.7289 61.2543 38.3851 62.0795 39.459 62.0795ZM43.3691 62.0795C44.4032 62.0795 45.0992 61.294 45.0992 60.1108C45.0992 58.9176 44.4032 58.1321 43.3691 58.1321C42.335 58.1321 41.639 58.9176 41.639 60.1108C41.639 61.294 42.335 62.0795 43.3691 62.0795ZM43.3691 61.5526C42.5836 61.5526 42.2257 60.8764 42.2257 60.1108C42.2257 59.3452 42.5836 58.6591 43.3691 58.6591C44.1546 58.6591 44.5126 59.3452 44.5126 60.1108C44.5126 60.8764 44.1546 61.5526 43.3691 61.5526ZM47.4365 62.0795C48.1723 62.0795 48.4209 61.6222 48.5502 61.4134H48.6198V62H49.1865V56.9091H48.5999V58.7884H48.5502C48.4209 58.5895 48.1922 58.1321 47.4465 58.1321C46.482 58.1321 45.8158 58.8977 45.8158 60.1009C45.8158 61.3139 46.482 62.0795 47.4365 62.0795ZM47.5161 61.5526C46.7803 61.5526 46.4024 60.9062 46.4024 60.0909C46.4024 59.2855 46.7703 58.6591 47.5161 58.6591C48.232 58.6591 48.6098 59.2358 48.6098 60.0909C48.6098 60.956 48.222 61.5526 47.5161 61.5526ZM51.9433 62.0795C52.7188 62.0795 53.2856 61.6918 53.4646 61.1151L52.8978 60.956C52.7487 61.3537 52.4031 61.5526 51.9433 61.5526C51.2547 61.5526 50.7799 61.1076 50.7526 60.2898H53.5242V60.0412C53.5242 58.6193 52.6791 58.1321 51.8836 58.1321C50.8495 58.1321 50.1634 58.9474 50.1634 60.1207C50.1634 61.294 50.8396 62.0795 51.9433 62.0795ZM50.7526 59.7827C50.7923 59.1886 51.2124 58.6591 51.8836 58.6591C52.52 58.6591 52.9276 59.1364 52.9276 59.7827H50.7526ZM22.9502 73.0795C23.7954 73.0795 24.3522 72.5625 24.4516 71.8864H23.865C23.7556 72.304 23.4076 72.5526 22.9502 72.5526C22.2542 72.5526 21.8067 71.9759 21.8067 71.0909C21.8067 70.2259 22.2641 69.6591 22.9502 69.6591C23.4672 69.6591 23.7755 69.9773 23.865 70.3253H24.4516C24.3522 69.6094 23.7456 69.1321 22.9402 69.1321C21.9062 69.1321 21.2201 69.9474 21.2201 71.1108C21.2201 72.2543 21.8763 73.0795 22.9502 73.0795ZM26.8603 73.0795C27.8944 73.0795 28.5905 72.294 28.5905 71.1108C28.5905 69.9176 27.8944 69.1321 26.8603 69.1321C25.8263 69.1321 25.1302 69.9176 25.1302 71.1108C25.1302 72.294 25.8263 73.0795 26.8603 73.0795ZM26.8603 72.5526C26.0748 72.5526 25.7169 71.8764 25.7169 71.1108C25.7169 70.3452 26.0748 69.6591 26.8603 69.6591C27.6459 69.6591 28.0038 70.3452 28.0038 71.1108C28.0038 71.8764 27.6459 72.5526 26.8603 72.5526ZM30.9277 73.0795C31.6635 73.0795 31.9121 72.6222 32.0414 72.4134H32.111V73H32.6777V67.9091H32.0911V69.7884H32.0414C31.9121 69.5895 31.6834 69.1321 30.9377 69.1321C29.9732 69.1321 29.307 69.8977 29.307 71.1009C29.307 72.3139 29.9732 73.0795 30.9277 73.0795ZM31.0073 72.5526C30.2715 72.5526 29.8936 71.9062 29.8936 71.0909C29.8936 70.2855 30.2615 69.6591 31.0073 69.6591C31.7232 69.6591 32.101 70.2358 32.101 71.0909C32.101 71.956 31.7132 72.5526 31.0073 72.5526ZM35.4345 73.0795C36.21 73.0795 36.7768 72.6918 36.9558 72.1151L36.389 71.956C36.2399 72.3537 35.8943 72.5526 35.4345 72.5526C34.7459 72.5526 34.2711 72.1076 34.2438 71.2898H37.0154V71.0412C37.0154 69.6193 36.1703 69.1321 35.3748 69.1321C34.3407 69.1321 33.6546 69.9474 33.6546 71.1207C33.6546 72.294 34.3308 73.0795 35.4345 73.0795ZM34.2438 70.7827C34.2836 70.1886 34.7037 69.6591 35.3748 69.6591C36.0112 69.6591 36.4189 70.1364 36.4189 70.7827H34.2438ZM39.459 73.0795C40.3041 73.0795 40.861 72.5625 40.9604 71.8864H40.3738C40.2644 72.304 39.9164 72.5526 39.459 72.5526C38.763 72.5526 38.3155 71.9759 38.3155 71.0909C38.3155 70.2259 38.7729 69.6591 39.459 69.6591C39.976 69.6591 40.2843 69.9773 40.3738 70.3253H40.9604C40.861 69.6094 40.2544 69.1321 39.449 69.1321C38.4149 69.1321 37.7289 69.9474 37.7289 71.1108C37.7289 72.2543 38.3851 73.0795 39.459 73.0795ZM43.3691 73.0795C44.4032 73.0795 45.0992 72.294 45.0992 71.1108C45.0992 69.9176 44.4032 69.1321 43.3691 69.1321C42.335 69.1321 41.639 69.9176 41.639 71.1108C41.639 72.294 42.335 73.0795 43.3691 73.0795ZM43.3691 72.5526C42.5836 72.5526 42.2257 71.8764 42.2257 71.1108C42.2257 70.3452 42.5836 69.6591 43.3691 69.6591C44.1546 69.6591 44.5126 70.3452 44.5126 71.1108C44.5126 71.8764 44.1546 72.5526 43.3691 72.5526ZM47.4365 73.0795C48.1723 73.0795 48.4209 72.6222 48.5502 72.4134H48.6198V73H49.1865V67.9091H48.5999V69.7884H48.5502C48.4209 69.5895 48.1922 69.1321 47.4465 69.1321C46.482 69.1321 45.8158 69.8977 45.8158 71.1009C45.8158 72.3139 46.482 73.0795 47.4365 73.0795ZM47.5161 72.5526C46.7803 72.5526 46.4024 71.9062 46.4024 71.0909C46.4024 70.2855 46.7703 69.6591 47.5161 69.6591C48.232 69.6591 48.6098 70.2358 48.6098 71.0909C48.6098 71.956 48.222 72.5526 47.5161 72.5526ZM51.9433 73.0795C52.7188 73.0795 53.2856 72.6918 53.4646 72.1151L52.8978 71.956C52.7487 72.3537 52.4031 72.5526 51.9433 72.5526C51.2547 72.5526 50.7799 72.1076 50.7526 71.2898H53.5242V71.0412C53.5242 69.6193 52.6791 69.1321 51.8836 69.1321C50.8495 69.1321 50.1634 69.9474 50.1634 71.1207C50.1634 72.294 50.8396 73.0795 51.9433 73.0795ZM50.7526 70.7827C50.7923 70.1886 51.2124 69.6591 51.8836 69.6591C52.52 69.6591 52.9276 70.1364 52.9276 70.7827H50.7526ZM55.9678 73.0795C56.8129 73.0795 57.3698 72.5625 57.4692 71.8864H56.8825C56.7732 72.304 56.4252 72.5526 55.9678 72.5526C55.2717 72.5526 54.8243 71.9759 54.8243 71.0909C54.8243 70.2259 55.2817 69.6591 55.9678 69.6591C56.4848 69.6591 56.7931 69.9773 56.8825 70.3253H57.4692C57.3698 69.6094 56.7632 69.1321 55.9578 69.1321C54.9237 69.1321 54.2377 69.9474 54.2377 71.1108C54.2377 72.2543 54.8939 73.0795 55.9678 73.0795ZM59.8779 73.0795C60.912 73.0795 61.608 72.294 61.608 71.1108C61.608 69.9176 60.912 69.1321 59.8779 69.1321C58.8438 69.1321 58.1478 69.9176 58.1478 71.1108C58.1478 72.294 58.8438 73.0795 59.8779 73.0795ZM59.8779 72.5526C59.0924 72.5526 58.7345 71.8764 58.7345 71.1108C58.7345 70.3452 59.0924 69.6591 59.8779 69.6591C60.6634 69.6591 61.0214 70.3452 61.0214 71.1108C61.0214 71.8764 60.6634 72.5526 59.8779 72.5526ZM64.1044 73.0795C64.88 73.0795 65.4467 72.6918 65.6257 72.1151L65.0589 71.956C64.9098 72.3537 64.5643 72.5526 64.1044 72.5526C63.4158 72.5526 62.941 72.1076 62.9137 71.2898H65.6854V71.0412C65.6854 69.6193 64.8402 69.1321 64.0447 69.1321C63.0106 69.1321 62.3246 69.9474 62.3246 71.1207C62.3246 72.294 63.0007 73.0795 64.1044 73.0795ZM62.9137 70.7827C62.9535 70.1886 63.3736 69.6591 64.0447 69.6591C64.6811 69.6591 65.0888 70.1364 65.0888 70.7827H62.9137Z" fill="#9E9E9E"/>
<defs>
<filter id="filter0_d" x="40.7086" y="44" width="80.4496" height="121.899" filterUnits="userSpaceOnUse" color-interpolation-filters="sRGB">
<feFlood flood-opacity="0" result="BackgroundImageFix"/>
<feColorMatrix in="SourceAlpha" type="matrix" values="0 0 0 0 0 0 0 0 0 0 0 0 0 0 0 0 0 0 127 0"/>
<feOffset dy="4"/>
<feGaussianBlur stdDeviation="2"/>
<feColorMatrix type="matrix" values="0 0 0 0 0 0 0 0 0 0 0 0 0 0 0 0 0 0 0.25 0"/>
<feBlend mode="normal" in2="BackgroundImageFix" result="effect1_dropShadow"/>
<feBlend mode="normal" in="SourceGraphic" in2="effect1_dropShadow" result="shape"/>
</filter>
<filter id="filter1_d" x="10.9057" y="0" width="69.5501" height="93" filterUnits="userSpaceOnUse" color-interpolation-filters="sRGB">
<feFlood flood-opacity="0" result="BackgroundImageFix"/>
<feColorMatrix in="SourceAlpha" type="matrix" values="0 0 0 0 0 0 0 0 0 0 0 0 0 0 0 0 0 0 127 0"/>
<feOffset/>
<feGaussianBlur stdDeviation="2"/>
<feColorMatrix type="matrix" values="0 0 0 0 0 0 0 0 0 0 0 0 0 0 0 0 0 0 0.25 0"/>
<feBlend mode="normal" in2="BackgroundImageFix" result="effect1_dropShadow"/>
<feBlend mode="normal" in="SourceGraphic" in2="effect1_dropShadow" result="shape"/>
</filter>
<linearGradient id="paint0_linear" x1="80.9231" y1="44" x2="80.9231" y2="174" gradientUnits="userSpaceOnUse">
<stop stop-color="#FF7979"/>
<stop offset="1" stop-color="#E36565"/>
</linearGradient>
</defs>
</svg>
