<svg width="120" height="134" viewBox="0 0 120 134" fill="none" xmlns="http://www.w3.org/2000/svg">
<g filter="url(#filter0_d)">
<path d="M4 79.5494V52C4 40.402 13.402 31 25 31H78.1222C90.1686 31 99.7458 41.1125 99.0912 53.1411L97.9042 74.9541C97.2779 86.4633 87.4946 95.247 75.9958 94.453C52.4416 92.8266 29.5292 91.3319 26.7039 97.7139C16.9178 119.82 3.65328 132.058 6.74012 122.978C9.57035 114.654 9.65323 105.613 8.27307 98.9633C6.9562 92.6189 4 86.029 4 79.5494Z" fill="url(#paint0_linear)"/>
</g>
<path d="M117.557 36.5C117.557 52.2539 104.883 65 89.2787 65C73.6745 65 61 52.2539 61 36.5C61 20.7461 73.6745 8 89.2787 8C104.883 8 117.557 20.7461 117.557 36.5Z" fill="white"/>
<path d="M117.557 36.5C117.557 52.2539 104.883 65 89.2787 65C73.6745 65 61 52.2539 61 36.5C61 20.7461 73.6745 8 89.2787 8C104.883 8 117.557 20.7461 117.557 36.5Z" fill="url(#paint1_angular)"/>
<path d="M117.557 36.5C117.557 52.2539 104.883 65 89.2787 65C73.6745 65 61 52.2539 61 36.5C61 20.7461 73.6745 8 89.2787 8C104.883 8 117.557 20.7461 117.557 36.5Z" stroke="#65AADF" stroke-width="4"/>
<path d="M89.775 36V2" stroke="#2F2F2F" stroke-width="3" stroke-linecap="round" stroke-linejoin="round"/>
<defs>
<filter id="filter0_d" x="0" y="31" width="103.123" height="103" filterUnits="userSpaceOnUse" color-interpolation-filters="sRGB">
<feFlood flood-opacity="0" result="BackgroundImageFix"/>
<feColorMatrix in="SourceAlpha" type="matrix" values="0 0 0 0 0 0 0 0 0 0 0 0 0 0 0 0 0 0 127 0"/>
<feOffset dy="4"/>
<feGaussianBlur stdDeviation="2"/>
<feColorMatrix type="matrix" values="0 0 0 0 0 0 0 0 0 0 0 0 0 0 0 0 0 0 0.08 0"/>
<feBlend mode="normal" in2="BackgroundImageFix" result="effect1_dropShadow"/>
<feBlend mode="normal" in="SourceGraphic" in2="effect1_dropShadow" result="shape"/>
</filter>
<linearGradient id="paint0_linear" x1="52.148" y1="31" x2="52.148" y2="124.603" gradientUnits="userSpaceOnUse">
<stop stop-color="#6EBFFC"/>
<stop offset="1" stop-color="#5E9BC9"/>
</linearGradient>
<radialGradient id="paint1_angular" cx="0" cy="0" r="1" gradientUnits="userSpaceOnUse" gradientTransform="translate(89.2787 36.5) rotate(-90) scale(29.5469 29.3325)">
<stop stop-color="#C0C0C0"/>
<stop offset="1" stop-color="white" stop-opacity="0"/>
</radialGradient>
</defs>
</svg>
