<svg width="148" height="154" viewBox="0 0 148 154" fill="none" xmlns="http://www.w3.org/2000/svg">
<g filter="url(#filter0_d)">
<path d="M4 133.612V66.6116C4 59.9842 9.37258 54.6116 16 54.6116H107.158C113.786 54.6116 119.158 59.9842 119.158 66.6116V133.612C119.158 140.239 113.786 145.612 107.158 145.612H16C9.37258 145.612 4 140.239 4 133.612Z" fill="#4E4E4E"/>
</g>
<g filter="url(#filter1_d)">
<path d="M20.0684 129.256C4.2941 155.112 4.29403 74.6377 4.29407 62.6116H122.429C115.772 93.1116 123.89 115.226 126.219 121.239C128.547 127.252 135.829 128.755 143.977 129.256H20.0684Z" fill="url(#paint0_linear)"/>
</g>
<path d="M118.144 73.6116H7C5.34315 73.6116 4 72.2684 4 70.6116V49.6116C4 47.9547 5.34314 46.6116 7 46.6116H118.144C119.801 46.6116 121.144 47.9547 121.144 49.6116V70.6116C121.144 72.2684 119.801 73.6116 118.144 73.6116Z" fill="#362A2A"/>
<path d="M30.8041 55.6116V36.6116" stroke="#5E5E5E" stroke-width="5" stroke-linecap="round"/>
<path d="M91.3614 55.6116V36.6116" stroke="#5E5E5E" stroke-width="5" stroke-linecap="round"/>
<path d="M93.3469 18.1116L98.6382 70.1457C101.888 70.8343 108.973 71.5036 111.313 66.3093C114.238 53.3234 127.4 12.5948 111.313 2.2651C98.4432 -5.99866 93.3469 10.4382 93.3469 18.1116Z" fill="#FF5555"/>
<ellipse cx="103.274" cy="89.1116" rx="9.92743" ry="10.5" fill="#FF5252"/>
<defs>
<filter id="filter0_d" x="0" y="54.6116" width="123.158" height="99" filterUnits="userSpaceOnUse" color-interpolation-filters="sRGB">
<feFlood flood-opacity="0" result="BackgroundImageFix"/>
<feColorMatrix in="SourceAlpha" type="matrix" values="0 0 0 0 0 0 0 0 0 0 0 0 0 0 0 0 0 0 127 0"/>
<feOffset dy="4"/>
<feGaussianBlur stdDeviation="2"/>
<feColorMatrix type="matrix" values="0 0 0 0 0 0 0 0 0 0 0 0 0 0 0 0 0 0 0.25 0"/>
<feBlend mode="normal" in2="BackgroundImageFix" result="effect1_dropShadow"/>
<feBlend mode="normal" in="SourceGraphic" in2="effect1_dropShadow" result="shape"/>
</filter>
<filter id="filter1_d" x="0.294067" y="62.6116" width="147.683" height="79.7335" filterUnits="userSpaceOnUse" color-interpolation-filters="sRGB">
<feFlood flood-opacity="0" result="BackgroundImageFix"/>
<feColorMatrix in="SourceAlpha" type="matrix" values="0 0 0 0 0 0 0 0 0 0 0 0 0 0 0 0 0 0 127 0"/>
<feOffset dy="4"/>
<feGaussianBlur stdDeviation="2"/>
<feColorMatrix type="matrix" values="0 0 0 0 0 0 0 0 0 0 0 0 0 0 0 0 0 0 0.25 0"/>
<feBlend mode="normal" in2="BackgroundImageFix" result="effect1_dropShadow"/>
<feBlend mode="normal" in="SourceGraphic" in2="effect1_dropShadow" result="shape"/>
</filter>
<linearGradient id="paint0_linear" x1="74.1354" y1="62.6116" x2="74.1354" y2="134.345" gradientUnits="userSpaceOnUse">
<stop stop-color="#FFD7D7"/>
<stop offset="1" stop-color="#FFBDBD"/>
</linearGradient>
</defs>
</svg>
