<svg width="141" height="150" viewBox="0 0 141 150" fill="none" xmlns="http://www.w3.org/2000/svg">
<path d="M2 135.403V68.5332C2 61.9058 7.37258 56.5332 14 56.5332H105.158C111.786 56.5332 117.158 61.9058 117.158 68.5332V135.403C117.158 142.03 111.786 147.403 105.158 147.403H14C7.37258 147.403 2 142.03 2 135.403Z" stroke="#1C9CFC" stroke-width="4"/>
<path d="M19.3584 130.963C4.00003 156.554 3.99997 76.9031 4 65H119.02C112.539 95.1881 120.443 117.076 122.71 123.028C124.977 128.979 132.067 130.467 140 130.963H19.3584Z" fill="white" stroke="#1C9CFC" stroke-width="4"/>
<path d="M116.144 75.5059H5C3.34315 75.5059 2 74.1628 2 72.5059V51.5447C2 49.8878 3.34314 48.5447 5 48.5447H116.144C117.801 48.5447 119.144 49.8878 119.144 51.5447V72.5059C119.144 74.1628 117.801 75.5059 116.144 75.5059Z" fill="white" stroke="#1C9CFC" stroke-width="4"/>
<path d="M28.8041 57.5318V38.5591" stroke="#1C9CFC" stroke-width="5" stroke-linecap="round"/>
<path d="M89.3613 57.5318V38.5591" stroke="#1C9CFC" stroke-width="5" stroke-linecap="round"/>
<path d="M91.3469 20.0856L96.6382 72.045C99.8882 72.7327 106.973 73.401 109.313 68.2141C112.238 55.2468 125.4 14.5767 109.313 4.26185C96.4432 -3.99005 91.3469 12.4232 91.3469 20.0856Z" fill="white" stroke="#1C9CFC" stroke-width="3"/>
<path d="M110.202 90.9837C110.202 96.2743 106.154 100.469 101.274 100.469C96.3946 100.469 92.3469 96.2743 92.3469 90.9837C92.3469 85.6931 96.3946 81.4988 101.274 81.4988C106.154 81.4988 110.202 85.6931 110.202 90.9837Z" stroke="#1C9CFC" stroke-width="2"/>
</svg>
