<svg width="139" height="169" viewBox="0 0 139 169" fill="none" xmlns="http://www.w3.org/2000/svg">
<path d="M2 155.434C27.1378 159.507 77.4996 164.537 77.8443 152.069C78.2752 136.484 108.872 137.192 136.02 142.151" stroke="#1C9CFC" stroke-width="4" stroke-linecap="round" stroke-linejoin="round" stroke-dasharray="12 12"/>
<path d="M38.4935 74.7558L65.2629 147.4C67.8783 154.497 78.4482 154.519 81.2596 147.497C92.407 119.654 109.557 79.3411 110.234 73.4166C115.221 29.8067 39.5846 25.8176 38.0245 71.9584C37.9926 72.9018 38.1671 73.8701 38.4935 74.7558Z" fill="white" stroke="#1C9CFC" stroke-width="4"/>
<path d="M90.7242 74.9727C90.7242 84.3576 83.1638 91.9455 73.8621 91.9455C64.5604 91.9455 57 84.3576 57 74.9727C57 65.5879 64.5604 58 73.8621 58C83.1638 58 90.7242 65.5879 90.7242 74.9727Z" stroke="#1C9CFC" stroke-width="4"/>
<g filter="url(#filter0_d)">
<mask id="path-4-inside-1" fill="white">
<rect x="7" y="4" width="61.5501" height="84.878" rx="3"/>
</mask>
<rect x="7" y="4" width="61.5501" height="84.878" rx="3" fill="white"/>
<rect x="7" y="4" width="61.5501" height="84.878" rx="3" stroke="#1C9CFC" stroke-width="8" mask="url(#path-4-inside-1)"/>
</g>
<defs>
<filter id="filter0_d" x="3" y="0" width="69.5501" height="92.878" filterUnits="userSpaceOnUse" color-interpolation-filters="sRGB">
<feFlood flood-opacity="0" result="BackgroundImageFix"/>
<feColorMatrix in="SourceAlpha" type="matrix" values="0 0 0 0 0 0 0 0 0 0 0 0 0 0 0 0 0 0 127 0"/>
<feOffset/>
<feGaussianBlur stdDeviation="2"/>
<feColorMatrix type="matrix" values="0 0 0 0 0 0 0 0 0 0 0 0 0 0 0 0 0 0 0.25 0"/>
<feBlend mode="normal" in2="BackgroundImageFix" result="effect1_dropShadow"/>
<feBlend mode="normal" in="SourceGraphic" in2="effect1_dropShadow" result="shape"/>
</filter>
</defs>
</svg>
