<svg width="118" height="128" viewBox="0 0 118 128" fill="none" xmlns="http://www.w3.org/2000/svg">
<path d="M2 79.4144V51.9585C2 40.3605 11.402 30.9585 23 30.9585H76.1205C88.1675 30.9585 97.7449 41.072 97.0894 53.1012L95.9056 74.8228C95.2785 86.3307 85.4963 95.1135 73.9986 94.3207C50.4435 92.6965 27.5293 91.2036 24.7039 97.5767C14.9178 119.651 1.65328 131.871 4.74012 122.805C7.56742 114.501 7.65306 105.483 6.27734 98.8448C4.96132 92.495 2 85.8992 2 79.4144Z" stroke="#1C9CFC" stroke-width="4"/>
<path d="M115.557 36.4506C115.557 52.1776 102.886 64.9069 87.2787 64.9069C71.6718 64.9069 59 52.1776 59 36.4506C59 20.7236 71.6718 7.99438 87.2787 7.99438C102.886 7.99438 115.557 20.7236 115.557 36.4506Z" fill="white"/>
<path d="M115.557 36.4506C115.557 52.1776 102.886 64.9069 87.2787 64.9069C71.6718 64.9069 59 52.1776 59 36.4506C59 20.7236 71.6718 7.99438 87.2787 7.99438C102.886 7.99438 115.557 20.7236 115.557 36.4506Z" fill="url(#paint0_angular)"/>
<path d="M115.557 36.4506C115.557 52.1776 102.886 64.9069 87.2787 64.9069C71.6718 64.9069 59 52.1776 59 36.4506C59 20.7236 71.6718 7.99438 87.2787 7.99438C102.886 7.99438 115.557 20.7236 115.557 36.4506Z" stroke="#1C9CFC" stroke-width="4"/>
<path d="M87.775 35.9512V2" stroke="#1C9CFC" stroke-width="3" stroke-linecap="round" stroke-linejoin="round"/>
<defs>
<radialGradient id="paint0_angular" cx="0" cy="0" r="1" gradientUnits="userSpaceOnUse" gradientTransform="translate(87.2787 36.4506) rotate(-90) scale(29.5045 29.3325)">
<stop stop-color="#C0C0C0"/>
<stop offset="1" stop-color="white" stop-opacity="0"/>
</radialGradient>
</defs>
</svg>
