<svg width="190" height="385" viewBox="0 0 190 385" fill="none" xmlns="http://www.w3.org/2000/svg">
<rect x="64" y="358" width="63" height="3" rx="1.5" fill="#FEFEFE" fill-opacity="0.3"/>
<rect x="71" y="199" width="47" height="47" fill="white" fill-opacity="0.3"/>
<rect x="122" y="199" width="47" height="47" fill="white" fill-opacity="0.3"/>
<path d="M165 47.75C165.414 47.75 165.75 47.4142 165.75 47C165.75 46.5858 165.414 46.25 165 46.25C164.586 46.25 164.25 46.5858 164.25 47C164.25 47.4142 164.586 47.75 165 47.75Z" stroke="white" stroke-opacity="0.3" stroke-miterlimit="10"/>
<path d="M165 51.5C165.414 51.5 165.75 51.1642 165.75 50.75C165.75 50.3358 165.414 50 165 50C164.586 50 164.25 50.3358 164.25 50.75C164.25 51.1642 164.586 51.5 165 51.5Z" stroke="white" stroke-opacity="0.3" stroke-miterlimit="10"/>
<path d="M165 44C165.414 44 165.75 43.6642 165.75 43.25C165.75 42.8358 165.414 42.5 165 42.5C164.586 42.5 164.25 42.8358 164.25 43.25C164.25 43.6642 164.586 44 165 44Z" stroke="white" stroke-opacity="0.3" stroke-miterlimit="10"/>
<path d="M27.911 18.009C28.233 18.009 28.52 18.1 28.772 18.282C29.024 18.4593 29.2177 18.695 29.353 18.989C29.4883 19.2783 29.556 19.5887 29.556 19.92C29.556 20.2607 29.4953 20.6363 29.374 21.047C29.2573 21.453 29.0403 21.838 28.723 22.202C28.4103 22.566 27.9833 22.825 27.442 22.979C27.386 22.993 27.3323 23 27.281 23C27.1597 23 27.0593 22.9697 26.98 22.909C26.9007 22.8437 26.861 22.7433 26.861 22.608C26.861 22.5053 26.8937 22.4167 26.959 22.342C27.029 22.2627 27.12 22.2067 27.232 22.174C27.526 22.09 27.7967 21.9407 28.044 21.726C28.296 21.5113 28.4803 21.2547 28.597 20.956C28.3637 21.1567 28.0977 21.257 27.799 21.257C27.5563 21.257 27.316 21.1847 27.078 21.04C26.8447 20.8907 26.6533 20.6923 26.504 20.445C26.3547 20.193 26.28 19.9223 26.28 19.633C26.28 19.339 26.3523 19.0683 26.497 18.821C26.6463 18.569 26.8447 18.3707 27.092 18.226C27.3393 18.0813 27.6123 18.009 27.911 18.009ZM27.911 20.487C28.135 20.487 28.3217 20.4053 28.471 20.242C28.625 20.0787 28.702 19.8757 28.702 19.633C28.702 19.3903 28.625 19.1873 28.471 19.024C28.3217 18.8607 28.135 18.779 27.911 18.779C27.6917 18.779 27.505 18.8607 27.351 19.024C27.197 19.1873 27.12 19.3903 27.12 19.633C27.12 19.8757 27.197 20.0787 27.351 20.242C27.505 20.4053 27.6917 20.487 27.911 20.487ZM30.745 20.263C30.6096 20.263 30.5046 20.228 30.43 20.158C30.36 20.0833 30.325 19.9783 30.325 19.843V19.724C30.325 19.5887 30.36 19.486 30.43 19.416C30.5046 19.3413 30.6096 19.304 30.745 19.304H30.836C30.9713 19.304 31.074 19.3413 31.144 19.416C31.2186 19.486 31.256 19.5887 31.256 19.724V19.843C31.256 19.9783 31.2186 20.0833 31.144 20.158C31.074 20.228 30.9713 20.263 30.836 20.263H30.745ZM30.745 23C30.6096 23 30.5046 22.965 30.43 22.895C30.36 22.8203 30.325 22.7153 30.325 22.58V22.461C30.325 22.3257 30.36 22.223 30.43 22.153C30.5046 22.0783 30.6096 22.041 30.745 22.041H30.836C30.9713 22.041 31.074 22.0783 31.144 22.153C31.2186 22.223 31.256 22.3257 31.256 22.461V22.58C31.256 22.7153 31.2186 22.8203 31.144 22.895C31.074 22.965 30.9713 23 30.836 23H30.745ZM35.753 20.9C35.865 20.9 35.9584 20.9373 36.033 21.012C36.1077 21.0867 36.145 21.18 36.145 21.292C36.145 21.3993 36.1077 21.4903 36.033 21.565C35.9584 21.635 35.865 21.67 35.753 21.67H35.459V22.573C35.459 22.6943 35.417 22.797 35.333 22.881C35.2537 22.9603 35.1534 23 35.032 23C34.9154 23 34.8174 22.9603 34.738 22.881C34.6587 22.797 34.619 22.6943 34.619 22.573V21.67H32.799C32.6964 21.67 32.6007 21.6303 32.512 21.551C32.4234 21.467 32.379 21.369 32.379 21.257C32.379 21.1543 32.414 21.061 32.484 20.977L34.696 18.268C34.7847 18.156 34.9014 18.1 35.046 18.1C35.1627 18.1 35.2607 18.142 35.34 18.226C35.4194 18.3053 35.459 18.4057 35.459 18.527V20.9H35.753ZM34.619 20.9V19.5L33.485 20.9H34.619ZM38.3151 18.1C38.4317 18.1 38.5297 18.142 38.6091 18.226C38.6884 18.3053 38.7281 18.4057 38.7281 18.527V22.573C38.7281 22.6943 38.6837 22.797 38.5951 22.881C38.5064 22.9603 38.3967 23 38.2661 23C38.1354 23 38.0281 22.9603 37.9441 22.881C37.8601 22.797 37.8181 22.6943 37.8181 22.573V19.255L37.3841 19.521C37.3141 19.563 37.2394 19.584 37.1601 19.584C37.0434 19.584 36.9431 19.5397 36.8591 19.451C36.7797 19.3623 36.7401 19.2643 36.7401 19.157C36.7401 19.0823 36.7587 19.0123 36.7961 18.947C36.8381 18.8817 36.8917 18.8303 36.9571 18.793L38.0141 18.163C38.0934 18.121 38.1937 18.1 38.3151 18.1Z" fill="white" fill-opacity="0.3"/>
<path d="M27.6875 44.625L24.3125 48L27.6875 51.375" stroke="white" stroke-opacity="0.3" stroke-width="2" stroke-linecap="round" stroke-linejoin="round"/>
<rect x="1" y="1" width="188" height="383" rx="27" stroke="white" stroke-opacity="0.3" stroke-width="2"/>
<path d="M47.7507 11.5914L24.3345 12.0044C14.9746 12.4173 11.8733 22.8788 11.5995 26.4577C11.7364 129.558 11.9281 339.146 11.5995 352.691C11.2708 366.236 21.0481 371.549 25.9778 372.513C68.4281 374.027 158.258 373.339 164.831 372.513C176.716 371.02 176.882 360.537 177.156 356.821C177.293 249.04 178.064 31.3692 177.156 23.1541C176.745 19.4375 173.285 12.4173 166.064 12.4173C156.204 12.0044 141.826 12.4173 141.826 12.4173C141.826 21.6675 137.444 24.2553 135.253 24.393C111.289 24.6683 61.7182 25.0537 55.1452 24.393C48.5723 23.7322 47.4768 15.5833 47.7507 11.5914Z" stroke="white" stroke-opacity="0.3" stroke-width="2"/>
<rect x="80.3118" y="16.5591" width="27.3226" height="1.65591" rx="0.827957" fill="white" fill-opacity="0.3"/>
<path d="M13 59.5H178.5" stroke="white" stroke-opacity="0.3" stroke-width="2"/>
<path d="M83.64 42C83.98 42 84.3033 42.1033 84.61 42.31C84.9167 42.51 85.1633 42.7833 85.35 43.13C85.5367 43.47 85.63 43.8433 85.63 44.25C85.63 44.65 85.5367 45.0233 85.35 45.37C85.1633 45.7167 84.9167 45.9933 84.61 46.2C84.3033 46.4 83.98 46.5 83.64 46.5H81.9V48.39C81.9 48.57 81.8467 48.7167 81.74 48.83C81.6333 48.9433 81.4933 49 81.32 49C81.1533 49 81.0167 48.9433 80.91 48.83C80.8033 48.71 80.75 48.5633 80.75 48.39V42.61C80.75 42.4367 80.8067 42.2933 80.92 42.18C81.04 42.06 81.1867 42 81.36 42H83.64ZM83.64 45.36C83.7667 45.36 83.89 45.3067 84.01 45.2C84.1367 45.0933 84.2367 44.9567 84.31 44.79C84.39 44.6167 84.43 44.4367 84.43 44.25C84.43 44.0633 84.39 43.8867 84.31 43.72C84.2367 43.5467 84.1367 43.41 84.01 43.31C83.89 43.2033 83.7667 43.15 83.64 43.15H81.9V45.36H83.64ZM89.4554 43.55C89.6554 43.55 89.8221 43.6067 89.9554 43.72C90.0954 43.8333 90.1654 43.9667 90.1654 44.12C90.1654 44.3267 90.1121 44.4833 90.0054 44.59C89.8987 44.69 89.7721 44.74 89.6254 44.74C89.5254 44.74 89.4121 44.7167 89.2854 44.67C89.2654 44.6633 89.2187 44.65 89.1454 44.63C89.0787 44.61 89.0054 44.6 88.9254 44.6C88.7521 44.6 88.5854 44.6533 88.4254 44.76C88.2654 44.8667 88.1321 45.03 88.0254 45.25C87.9254 45.4633 87.8754 45.72 87.8754 46.02V48.39C87.8754 48.5633 87.8187 48.71 87.7054 48.83C87.5921 48.9433 87.4487 49 87.2754 49C87.1021 49 86.9587 48.9433 86.8454 48.83C86.7321 48.71 86.6754 48.5633 86.6754 48.39V44.26C86.6754 44.0867 86.7321 43.9433 86.8454 43.83C86.9587 43.71 87.1021 43.65 87.2754 43.65C87.4487 43.65 87.5921 43.71 87.7054 43.83C87.8187 43.9433 87.8754 44.0867 87.8754 44.26V44.39C88.0287 44.1167 88.2487 43.91 88.5354 43.77C88.8221 43.6233 89.1287 43.55 89.4554 43.55ZM95.9267 46.33C95.9267 46.8633 95.8067 47.3433 95.5667 47.77C95.3267 48.19 94.9967 48.5167 94.5767 48.75C94.1634 48.9833 93.7067 49.1 93.2067 49.1C92.7001 49.1 92.2401 48.9833 91.8267 48.75C91.4134 48.5167 91.0867 48.19 90.8467 47.77C90.6067 47.3433 90.4867 46.8633 90.4867 46.33C90.4867 45.7967 90.6067 45.32 90.8467 44.9C91.0867 44.4733 91.4134 44.1433 91.8267 43.91C92.2401 43.67 92.7001 43.55 93.2067 43.55C93.7067 43.55 94.1634 43.67 94.5767 43.91C94.9967 44.1433 95.3267 44.4733 95.5667 44.9C95.8067 45.32 95.9267 45.7967 95.9267 46.33ZM94.7267 46.33C94.7267 46.0033 94.6567 45.7133 94.5167 45.46C94.3834 45.2 94.2001 45 93.9667 44.86C93.7401 44.72 93.4867 44.65 93.2067 44.65C92.9267 44.65 92.6701 44.72 92.4367 44.86C92.2101 45 92.0267 45.2 91.8867 45.46C91.7534 45.7133 91.6867 46.0033 91.6867 46.33C91.6867 46.6567 91.7534 46.9467 91.8867 47.2C92.0267 47.4533 92.2101 47.65 92.4367 47.79C92.6701 47.93 92.9267 48 93.2067 48C93.4867 48 93.7401 47.93 93.9667 47.79C94.2001 47.65 94.3834 47.4533 94.5167 47.2C94.6567 46.9467 94.7267 46.6567 94.7267 46.33ZM99.4993 42.66C99.2726 42.66 99.1126 42.7267 99.0193 42.86C98.926 42.9867 98.8793 43.1267 98.8793 43.28V43.75H99.7893C99.9493 43.75 100.083 43.8033 100.189 43.91C100.296 44.01 100.349 44.14 100.349 44.3C100.349 44.46 100.296 44.5933 100.189 44.7C100.083 44.8 99.9493 44.85 99.7893 44.85H98.8793V48.39C98.8793 48.5633 98.8226 48.71 98.7093 48.83C98.596 48.9433 98.4526 49 98.2793 49C98.106 49 97.9626 48.9433 97.8493 48.83C97.736 48.71 97.6793 48.5633 97.6793 48.39V44.85H97.1393C96.9793 44.85 96.846 44.8 96.7393 44.7C96.6326 44.5933 96.5793 44.46 96.5793 44.3C96.5793 44.14 96.6326 44.01 96.7393 43.91C96.846 43.8033 96.9793 43.75 97.1393 43.75H97.6793V43.29C97.6793 42.79 97.8493 42.3833 98.1893 42.07C98.536 41.7567 99.0326 41.6 99.6793 41.6C99.926 41.6 100.139 41.65 100.319 41.75C100.506 41.85 100.599 42.0033 100.599 42.21C100.599 42.37 100.553 42.5 100.459 42.6C100.366 42.7 100.253 42.75 100.119 42.75C100.086 42.75 100.049 42.7467 100.009 42.74C99.976 42.7333 99.9393 42.7267 99.8993 42.72C99.7393 42.68 99.606 42.66 99.4993 42.66ZM102.229 48.39C102.229 48.5633 102.173 48.71 102.059 48.83C101.946 48.9433 101.803 49 101.629 49C101.456 49 101.313 48.9433 101.199 48.83C101.086 48.71 101.029 48.5633 101.029 48.39V44.26C101.029 44.0867 101.086 43.9433 101.199 43.83C101.313 43.71 101.456 43.65 101.629 43.65C101.803 43.65 101.946 43.71 102.059 43.83C102.173 43.9433 102.229 44.0867 102.229 44.26V48.39ZM101.619 43C101.393 43 101.233 42.9633 101.139 42.89C101.046 42.8167 100.999 42.6867 100.999 42.5V42.31C100.999 42.1233 101.049 41.9933 101.149 41.92C101.249 41.8467 101.409 41.81 101.629 41.81C101.863 41.81 102.026 41.8467 102.119 41.92C102.213 41.9933 102.259 42.1233 102.259 42.31V42.5C102.259 42.6933 102.209 42.8267 102.109 42.9C102.016 42.9667 101.853 43 101.619 43ZM104.763 48.39C104.763 48.5633 104.703 48.71 104.583 48.83C104.469 48.9433 104.326 49 104.153 49C103.986 49 103.846 48.9433 103.733 48.83C103.619 48.71 103.563 48.5633 103.563 48.39V42.21C103.563 42.0367 103.619 41.8933 103.733 41.78C103.853 41.66 103.999 41.6 104.173 41.6C104.339 41.6 104.479 41.66 104.593 41.78C104.706 41.8933 104.763 42.0367 104.763 42.21V48.39ZM110.86 46.2C110.853 46.36 110.79 46.49 110.67 46.59C110.55 46.69 110.41 46.74 110.25 46.74H106.95C107.03 47.1333 107.213 47.4433 107.5 47.67C107.787 47.89 108.11 48 108.47 48C108.743 48 108.957 47.9767 109.11 47.93C109.263 47.8767 109.383 47.8233 109.47 47.77C109.563 47.71 109.627 47.67 109.66 47.65C109.78 47.59 109.893 47.56 110 47.56C110.14 47.56 110.26 47.61 110.36 47.71C110.46 47.81 110.51 47.9267 110.51 48.06C110.51 48.24 110.417 48.4033 110.23 48.55C110.043 48.7033 109.793 48.8333 109.48 48.94C109.167 49.0467 108.85 49.1 108.53 49.1C107.97 49.1 107.48 48.9833 107.06 48.75C106.647 48.5167 106.327 48.1967 106.1 47.79C105.873 47.3767 105.76 46.9133 105.76 46.4C105.76 45.8267 105.88 45.3233 106.12 44.89C106.36 44.4567 106.677 44.1267 107.07 43.9C107.463 43.6667 107.883 43.55 108.33 43.55C108.77 43.55 109.183 43.67 109.57 43.91C109.963 44.15 110.277 44.4733 110.51 44.88C110.743 45.2867 110.86 45.7267 110.86 46.2ZM108.33 44.65C107.557 44.65 107.1 45.0133 106.96 45.74H109.58V45.67C109.553 45.39 109.417 45.15 109.17 44.95C108.923 44.75 108.643 44.65 108.33 44.65Z" fill="white" fill-opacity="0.3"/>
<rect x="17" y="140" width="155" height="4" fill="white" fill-opacity="0.3"/>
<rect x="74" y="101" width="81" height="7" fill="white" fill-opacity="0.3"/>
<circle cx="44" cy="101" r="20" fill="white" fill-opacity="0.3"/>
<rect x="74" y="85" width="91" height="10" fill="white" fill-opacity="0.3"/>
<rect x="20" y="148" width="47" height="47" fill="white" fill-opacity="0.3"/>
<rect x="71" y="148" width="47" height="47" fill="white" fill-opacity="0.3"/>
<rect x="122" y="148" width="47" height="47" fill="white" fill-opacity="0.3"/>
<rect x="20" y="199" width="47" height="47" fill="white" fill-opacity="0.3"/>
<rect x="160" y="21" width="1" height="3" rx="0.5" fill="white" fill-opacity="0.3"/>
<rect x="162" y="20" width="1" height="4" rx="0.5" fill="white" fill-opacity="0.3"/>
<rect x="164" y="19" width="1" height="5" rx="0.5" fill="white" fill-opacity="0.3"/>
<rect x="166" y="18" width="1" height="6" rx="0.5" fill="white" fill-opacity="0.3"/>
</svg>
