<svg width="198" height="198" viewBox="0 0 198 198" fill="none" xmlns="http://www.w3.org/2000/svg">
<path d="M136.973 104.764V116.291" stroke="white" stroke-opacity="0.3" stroke-width="6"/>
<path d="M107.476 115.274H136.634" stroke="white" stroke-opacity="0.3" stroke-width="6"/>
<path d="M66.7911 65.7739H56.6199C55.4898 66.339 53.2295 68.0794 53.2295 70.5205C53.2295 72.9616 53.2295 91.428 53.2295 100.356C53.5685 101.599 54.9247 104.086 57.637 104.086C60.3494 104.086 64.8699 104.086 66.7911 104.086" stroke="white" stroke-opacity="0.3" stroke-width="6"/>
<path d="M130.87 65.7739H141.041C142.171 66.344 144.432 68.0998 144.432 70.5625C144.432 73.0252 144.432 91.6551 144.432 100.662C144.092 101.916 142.736 104.425 140.024 104.425C137.312 104.425 132.791 104.425 130.87 104.425" stroke="white" stroke-opacity="0.3" stroke-width="6"/>
<circle cx="99" cy="99" r="96" stroke="white" stroke-opacity="0.3" stroke-width="6"/>
<path d="M36.2773 172.233C38.9897 166.243 46.7876 153.314 56.2808 149.517C68.1472 144.77 74.928 144.092 76.9623 142.058C78.9965 140.024 85.4383 133.243 83.4041 129.175C81.3698 125.106 72.2157 119.003 68.1472 108.154C64.8783 99.437 66.791 75.38 68.1472 65.4348C68.7123 58.654 78.3184 41.0239 98.3219 42.041" stroke="white" stroke-opacity="0.3" stroke-width="6"/>
<path d="M161.384 172.233C158.671 166.243 150.873 153.315 141.38 149.517C129.514 144.771 122.733 144.093 120.699 142.058C118.664 140.024 112.223 133.243 114.257 129.175C116.291 125.106 125.445 119.004 129.514 108.154C132.783 99.4373 130.87 75.3803 129.514 65.4351C128.949 58.6543 119.342 40.685 98.3219 42.0413" stroke="white" stroke-opacity="0.3" stroke-width="6"/>
<path d="M61.0273 64.4178C62.8356 51.1952 74.589 34.5822 99.678 31.8699" stroke="white" stroke-opacity="0.3" stroke-width="6"/>
<path d="M137.651 64.4178C135.858 51.2128 126.123 33.9043 99.339 31.8699" stroke="white" stroke-opacity="0.3" stroke-width="6"/>
<path d="M105.493 115.274C105.493 118.233 103.226 120.411 100.695 120.411C98.1644 120.411 95.8972 118.233 95.8972 115.274C95.8972 112.315 98.1644 110.137 100.695 110.137C103.226 110.137 105.493 112.315 105.493 115.274Z" stroke="white" stroke-opacity="0.3" stroke-width="6"/>
</svg>
